<?xml version="1.0" encoding="UTF-8"?>
<svg id="Capa_1" xmlns="http://www.w3.org/2000/svg" version="1.1" viewBox="0 0 132.47 133.68">
  <!-- Generator: Adobe Illustrator 30.0.0, SVG Export Plug-In . SVG Version: 2.1.1 Build 123)  -->
  <defs>
    <style>
      .st0 {
        fill: #fff;
      }
    </style>
  </defs>
  <path class="st0" d="M63.69,2.2l4.53-.08c51.58,1.99,81.1,59.42,50.94,102.06-28.81,40.74-91.38,35-111.99-10.39C-12.12,51.31,17.38,3.99,63.69,2.2ZM62.25,17.51C24.42,20.27,3.79,64.65,26.54,95.51c20.53,27.86,62.95,26.35,81.24-3,21.49-34.5-5.34-77.93-45.53-75Z"/>
  <path class="st0" d="M62.23,22.78c36.69-2.87,61.44,37.28,40.91,68.35-18.88,28.57-61.48,25.89-76.72-4.69-13.7-27.48,5.31-61.28,35.81-63.66ZM57.61,31.13c-5.5.44-14.78,6.68-18.42,10.78-1.76,1.99-5.18,5.6-1.53,7.58l13.22,4.69c1.5,0,4.55-2.65,5.95-3.59,1.78-1.2,3.42-1.09,3.73-3.78-.33-4.33.93-9.61.27-13.85-.23-1.48-1.91-1.94-3.22-1.84ZM73.7,31.22c-1.67.09-2.27.98-2.45,2.59-.34,3.01.1,6.81.29,9.82.07,1.19-.16,2.61.02,3.74.32,2.04,2.84,2.55,4.29,3.51,1.28.85,4.01,3.3,5.36,3.31,4.07-1.47,8.72-2.69,12.65-4.41s2.71-3.78.36-6.58c-3.93-4.67-14.25-12.3-20.52-11.97ZM56.9,75.45c11.76,12.09,29.83-5.62,18.39-17.38s-29.73,5.73-18.39,17.38ZM46.59,64.68l-12.82-5.81c-3.69-.89-3.96,2.82-4.14,5.55-.5,7.77,1.23,15.24,5.38,21.8,1.51,2.39,2.83,5.29,5.76,2.34l8.62-11.9c.46-1.57-.95-3.78-1.35-5.49-.43-1.83-.31-5.3-1.45-6.49ZM98.32,58.86c-1.45.3-9.97,4.3-11.53,5.22-2.71,1.6-1.76,3.18-2.32,5.76-.18.84-.41,1.71-.65,2.53-.72,2.51-2.01,2.79-.56,5.46.9,1.66,7.29,10.56,8.49,11.45,2.93,2.16,5.54-2.72,6.71-4.87,3.37-6.21,4.84-13.5,4.29-20.57-.21-2.78-.93-5.71-4.42-4.98ZM59.04,84.27c-.71.13-1.58,1.16-2.09,1.68-2.93,3.01-5.61,6.87-8.47,10.01-1.68,3.2,3.28,4.76,5.58,5.59,7.79,2.8,16.78,2.8,24.56,0,2.55-.92,7.8-2.61,5.17-6.05l-9.45-10.77c-1.64-1.13-3.3,0-5.05.27-1.07.16-2.64.41-3.68.39-1.67-.03-5.49-1.32-6.57-1.13Z"/>
  <path class="st0" d="M64.65,60.04c8.71-1.48,11.79,9.96,4.7,13.08-5.35,2.34-11.02-1.95-10.04-7.73.39-2.31,3.03-4.95,5.34-5.34Z"/>
</svg>

