<?xml version="1.0" encoding="UTF-8"?>
<svg id="Capa_1" xmlns="http://www.w3.org/2000/svg" version="1.1" viewBox="0 0 244.63 168.45">
  <!-- Generator: Adobe Illustrator 30.0.0, SVG Export Plug-In . SVG Version: 2.1.1 Build 123)  -->
  <defs>
    <style>
      .st0 {
        fill: #1d1d1b;
      }

      .st1 {
        fill: #fff;
      }

      .st2 {
        fill: #5ea58f;
      }
    </style>
  </defs>
  <g>
    <path class="st1" d="M-162.33,43.6l4.53-.08c51.58,1.99,81.1,59.42,50.94,102.06-28.81,40.74-91.38,35-111.99-10.39-19.29-42.48,10.21-89.8,56.52-91.59ZM-163.77,58.91c-37.83,2.76-58.46,47.14-35.71,78,20.53,27.86,62.95,26.35,81.24-3,21.49-34.5-5.34-77.93-45.53-75Z"/>
    <path class="st1" d="M-163.79,64.18c36.69-2.87,61.44,37.28,40.91,68.35-18.88,28.57-61.48,25.89-76.72-4.69-13.7-27.48,5.31-61.28,35.81-63.66ZM-168.41,72.53c-5.5.44-14.78,6.68-18.42,10.78-1.76,1.99-5.18,5.6-1.53,7.58l13.22,4.69c1.5,0,4.55-2.65,5.95-3.59,1.78-1.2,3.42-1.09,3.73-3.78-.33-4.33.93-9.61.27-13.85-.23-1.48-1.91-1.94-3.22-1.84ZM-152.32,72.63c-1.67.09-2.27.98-2.45,2.59-.34,3.01.1,6.81.29,9.82.07,1.19-.16,2.61.02,3.74.32,2.04,2.84,2.55,4.29,3.51,1.28.85,4.01,3.3,5.36,3.31,4.07-1.47,8.72-2.69,12.65-4.41s2.71-3.78.36-6.58c-3.93-4.67-14.25-12.3-20.52-11.97ZM-169.12,116.86c11.76,12.09,29.83-5.62,18.39-17.38s-29.73,5.73-18.39,17.38ZM-179.43,106.08l-12.82-5.81c-3.69-.89-3.96,2.82-4.14,5.55-.5,7.77,1.23,15.24,5.38,21.8,1.51,2.39,2.83,5.29,5.76,2.34l8.62-11.9c.46-1.57-.95-3.78-1.35-5.49-.43-1.83-.31-5.3-1.45-6.49ZM-127.7,100.27c-1.45.3-9.97,4.3-11.53,5.22-2.71,1.6-1.76,3.18-2.32,5.76-.18.84-.41,1.71-.65,2.53-.72,2.51-2.01,2.79-.56,5.46.9,1.66,7.29,10.56,8.49,11.45,2.93,2.16,5.54-2.72,6.71-4.87,3.37-6.21,4.84-13.5,4.29-20.57-.21-2.78-.93-5.71-4.42-4.98ZM-166.98,125.67c-.71.13-1.58,1.16-2.09,1.68-2.93,3.01-5.61,6.87-8.47,10.01-1.68,3.2,3.28,4.76,5.58,5.59,7.79,2.8,16.78,2.8,24.56,0,2.55-.92,7.8-2.61,5.17-6.05l-9.45-10.77c-1.64-1.13-3.3,0-5.05.27-1.07.16-2.64.41-3.68.39-1.67-.03-5.49-1.32-6.57-1.13Z"/>
    <path class="st1" d="M-161.37,101.45c8.71-1.48,11.79,9.96,4.7,13.08-5.35,2.34-11.02-1.95-10.04-7.73.39-2.31,3.03-4.95,5.34-5.34Z"/>
  </g>
  <g>
    <g>
      <path class="st2" d="M132.34,11.34c4.2,1.2,7.87,4.44,6.17,9.19-.42,1.17-2.65,3.5-2.22,4.44l14.75,12.86c9.11-5.26,20.29-4.04,29.85-.72,1.25.43,7.26,2.85,7.71,3.7.42.8-.02,1.34-.93,1.28s-5.39-2.24-6.84-2.7c-8.56-2.73-19.27-4.06-27.42.48l13,12.99c1.93,2.18,2.1,5.25.85,7.83-.56,1.15-4.24,5.06-5.35,5.75-4.19,2.6-9.19-2.19-12.15-4.85-3.77-3.39-7.12-7.48-10.93-10.86-12.6,10.45-28.38,16.42-44.22,20.07l-.56-.98c.02-.28.69-.72.97-.85,2.1-.98,5.64-1.61,8-2.45,11.89-4.23,24.34-9.35,33.72-17.96l-11.27-11.5c-.46-.08-1.67,1.44-2.23,1.82-6.6,4.54-11.17.45-16.11-4.01l-2.66,2.26c.89,1.33,1.72,2.72,2.68,3.99.6.79,2.93,3.07,3.13,3.52.74,1.61-.48,3.15-2.2,2.85-1.61-.28-6.27-6.7-6.85-8.55l-3.33,1.58c-.24.33-.13.67-.09,1.03.54,4.12,3.43,9.09,3.9,13.4-.04,2.15-1.65,3.21-3.36,4.08-2.03,1.04-10.53,4.18-12.44,3.98-.47-.05-1.27-.32-1.68-.55-2.49-1.38-3.62-9.48-4.22-12.27-.12-.58,0-.75-.78-.47-.57.2-.18,2.08-.12,2.65.29,2.42,1.91,7.37,1.83,9.21-.14,3.33-4.15,4.1-6.69,4.72-2.26.55-8.78,1.94-10.74,1.34-3.01-.93-3.11-7.56-3.47-10.16-.06-.44.19-.55-.46-.47-2.65.35-8.01,2.53-10.62,3.65-3.96,1.7-10.14,4.43-10.15,9.5,0,4.59,4.75,6.73,8.39,8.09,1.71.64,4.77,1.11,6.1,1.82,2.17,1.15,2.22,4.62,6.89,5.15,1.56.18,12.51.14,13.25-.3.38-.23.66-1.13,1.58-1.67,2.79-1.63,11.03-.74,14.67-.88,14.13-.55,26.65-3.9,40.32-6.25,9.03-1.55,24.38-1.83,33.51-.73,2.33.28,3.74,2.79,5.76,3.74l13.72-.1c3.21-4.74,8.66-5.17,11.47-10.4,6.09-11.33,1.96-28.98-5.91-38.56-.66-.8-2.88-2.52-3.17-3.17-.36-.81-.07-1.79-.2-2.65-.6-3.83-1.57-7.52-3.93-10.65-4.98-1.35-9.93-2.96-14.99-4.03-8.56-1.8-18.39-2.77-27.06-1.27-2.34.4-5.34,1.27-6.91,3.07Z"/>
      <path class="st2" d="M72.6,88.36c2.1,1.96,1.98,3.01,5.17,3.71,7.57,1.66,17.54,1.91,25.53,2.99,4.63.63,9.91,2.02,14.35,2.45,3.98.39,9.5-1.24,13.63-1.82,7.85-1.09,22.39-1.3,28.15-6.39,1.73-1.53,5.35-6.72,7.12-7.14l16.3-.09c.75.24.57.93.36,1.52-.79,2.2-6.03,5.83-5.79,8.34.27,2.88,5.06,3.92,7.34,5.03,8,3.92,15.86,8.12,23.96,11.85,3.71,2.47,2.59,8.84-1.8,9.57-3.15.53-7.53-2.36-10.55-3.56-6.82-2.69-13.35-4.56-20.53-6.09-3.57-.76-11.48-2.73-14.72-1.92-5.02,1.25-6.56,10.65-10.93,11.57-4.04.86-7.07-3.11-10.26-5.13-4.54-2.88-15.1-7.2-20.4-7.17-5.86.04-16.46,4.44-21.06,8.12-1.25,1-2.27,2.53-3.59,3.38-7.6,4.85-11.45-9.42-16.77-10.96-2.38-.69-6.34.39-8.83.88-8.09,1.61-18.98,4.14-26.41,7.5-3.64,1.65-10.24,6.75-12.8.35-1.42-3.55.51-5.8,3.4-7.53,7.29-4.37,16.7-7.12,24.16-11.34.47-.27,1.18-.62,1.53-1,2.52-2.78-3.06-6.34-2.23-7.14h15.69ZM205.71,115.89c3.11,0,3.41-5.19-.06-5.24s-3.34,5.23.06,5.24ZM150.26,115.3c2.99-2.18-.73-6.32-3.24-4.02-2.29,2.1.54,5.98,3.24,4.02ZM91.67,115.84c3.37.17,3.62-4.82.51-5.23-3.37-.45-4.01,5.05-.51,5.23ZM34.89,115.89c3.33,0,3.58-4.99.24-5.28s-3.64,5.29-.24,5.28Z"/>
      <path class="st2" d="M62.3,112.13l-10.55,2.61c-.82.37-.88,1.37-.86,2.15-.26.27-2.93-.67-3.63-.62-1.23.08-2.91,1.59-4.29,1.57l4.66,1.52c.88.57,1.9,1.31,1.33,2.38-.37.69-3.42,4.15-3.99,4.3-2.26.59-3.7-5.1-4.22-6.61l-5.38,1.9c.42.62,1.38.74,2.06,1.27,1.12.86,3.43,4.5,2.99,5.82-.38,1.14-6.12,1.2-7.34,1.06-1.68-.19-8.76-2.4-8.8-4.18-.03-1.27,3.15-3.8,4.44-4.12l2.84-.8c-1.77-.37-2.89-2.17-3.96-3.48-.59,1.26-5.55,6.26-6.85,4.55-.53-.7-1.69-3.88-1.8-4.81-.47-4,6.07-1.97,8.17-1.66-.88-1.71.16-3.36.32-5.07-3.01,1.36-5.46,1.64-8.56.31.73-4.79,5.42-10.89,10.14-12.21,2.3-.64,2.73,3.69,2.51,5.38-.13,1.04-.94,1.97-.77,3.04l4.59-2.55c-.44-1.4-2.09-6.26-.1-6.91.79-.26,5.55.8,6.13,1.37.84.82-.24,1.82.15,2.7l13.15-6.02c.34-.38-1.98-2.49-2.39-2.84-11.74-10.07-30.44-7.45-39.4,4.96-12.03,16.66-2.25,39.93,17.94,43.12,16.87,2.67,31.93-11.22,31.45-28.12Z"/>
      <path class="st2" d="M185.91,94.69l12.84,6.34.23-2.78,6.05-1.3c2.28,1.94.32,4.61.25,7.04.07.23,3.47,1.97,3.94,2.11.94.28-.11-1.76-.17-2.37-.12-1.3-.13-5.4,1.25-6.03,5.77,1.5,10.08,6.48,11.42,12.2-2.47,1.08-4.64,1.3-7.23.42-.65-.22-1-.74-1.65-.73.76,1.6,1.13,3.28.95,5.07,2.62-.56,5.7-1.89,8.09-.02.29.51-1.28,5.98-1.8,6.3-1.24.78-3.47-.85-4.39-1.69-.55-.5-2.32-3.09-2.84-2.7-.35,1.89-2.32,2.8-3.49,4.12,2.94-.19,6.38,1.64,7.26,4.53-3.88,3.9-11.12,5.82-16.1,3.19.25-2.18,1.06-4.01,2.66-5.51.67-.63,1.55-.92,2.07-1.57l-5.07-1.59c-.29,1.76-1.78,7.28-4.21,6.61-1.7-1.86-6.13-4.32-2.55-6.56,1.35-.84,2.93-.58,3.91-1.63-2.62-1.05-4.41-1.96-7.31-1.09l-.85-2.09-10.86-2.85c-.25,11.16,6.34,21.93,16.71,26.23,21.05,8.73,42.54-9.98,37.07-32-5.09-20.51-32.11-27.54-46.18-11.67Z"/>
      <path class="st2" d="M108.21,113.35c-3.04.37-5.2.56-7.56,2.74,1.54.52,6.86-.06,6.6,2.45-.08.77-2.25,4.81-2.8,5.16-2.21,1.38-5.08-4.42-5.86-5.87l-2.08,2.04-2.51,1.44c3.24.57,5.44,2.93,6.34,6.02-5.32,2.73-11.41,3.17-16.66.02.56-3.05,3.16-5.52,6.2-6.04l-4.75-2.85c-.54,1.68-3.11,6.15-5.17,5.65-1.08-.26-3.71-4.79-3.31-5.9.09-.26,1.6-1.19,2.01-1.31,1.61-.47,3.26-.22,4.88-.51l-2.52-3.17c-1.65.45-3.38.73-5.1.34-.9-.63.23-4.09.02-4.3-1.43-.04-11.29,1.85-11.42,2.43-.47,11.32,6.24,22.31,16.7,26.69,19.81,8.29,40.93-8.39,37.51-29.43-1.78.41-3.62.64-5.39,1.11-.86.23-4.84,1.38-5.02,1.96-.13.4.05.91-.09,1.32Z"/>
      <path class="st2" d="M121.57,116.72c.78,7.72,6.36,15.78,12.9,19.75,19.15,11.63,42.64-3.06,41.61-24.97l-11.41-1.9.27,3.76c-2.04.83-4.17.24-6.09-.55l-2.41,3.29,5.79.54c2.04,1.09,2.24,1.22,1.45,3.22-3.14,7.9-5.66,2.1-8.51-2.02l-1.12,1.58-3.32,1.91c2.04-.59,7.13,4.52,6.2,6.03s-7.73,2.36-9.53,2.21c-1.18-.09-6.8-1.33-6.82-2.67.49-1.72,1.55-2.97,2.85-4.14l3.17-1.73-4.75-2.54c-.33,1.74-3.07,6.3-5.18,5.67-.85-.78-3.57-4.74-3.21-5.68.14-.38,1.27-1.23,1.74-1.42l4.28-.79c-1.06-.54-3.19-2.2-4.2-2.46-.8-.21-1.8.1-2.42-.11-.56-.19-.43-1.02-.84-1.38-.64-.56-8.77-2.99-9.73-2.96-.39.01-.49.12-.72.42.16,2.25-.22,4.77,0,6.97Z"/>
      <path class="st2" d="M127.28,34.64l6.81-7.76c7.08,6.1,14.33,12.07,21.08,18.53,1.93,1.84,8.92,8.36,9.73,10.23.72,1.69.28,3.05-.73,4.48-.46.65-2.75,3.31-3.31,3.66-2.14,1.34-4.11-.15-5.84-1.42-3.52-2.58-7.67-7.09-10.82-10.25l-16.91-17.47ZM155.19,59.09c-.13.75,3.13,2.95,3.94,3.19,3.38-3.05,6.13-4.96,1.22-8.45l-5.16,5.25Z"/>
      <path class="st2" d="M129.56,13.32c-.39-.05-.76-.15-1.17-.09-.79.13-3.88,4.44-4.77,5.4-1.65,1.78-3.61,3.73-5.38,5.39-2.52,2.36-6.58,5.03-8.73,7.44-.26.3-.46.64-.6,1.01l.1.42c3.02,2.12,5.63,5.69,9.77,4.99,2.3-.39,4.54-3.02,6.1-4.67,2.22-2.34,10.37-11.48,11.03-14.01.84-3.22-3.7-5.56-6.37-5.89Z"/>
      <path class="st2" d="M94.1,40.22c-1.6-.52-11.3,4.22-11.78,5.9-.18.63.5,4.28.68,5.22.26,1.33,2.05,8.47,2.97,8.77s8.02-2.32,9.37-2.89c1.88-.8,3.69-1.05,3.34-3.48-.32-2.23-2.74-9.56-3.64-11.89-.2-.51-.35-1.42-.94-1.62Z"/>
      <path class="st2" d="M63.33,52.94c-1.22,1.27.11,9.94.91,11.92.73.47,8.1-1.05,9.47-1.38,1.12-.27,3.81-.69,4.29-1.76.16-.37-1.15-5.82-1.35-6.89-.44-2.47.43-5.71-2.74-5.43-1.48.13-9.73,2.66-10.58,3.55Z"/>
      <path class="st2" d="M79.1,89l.48.62,30.58,3.49c-3.01-2.87-6.82-5-10.85-6.1-6.95-1.9-13.73-1.06-20.21,1.99Z"/>
      <path class="st2" d="M130.76,93.11l19.98-2.67c.8.16,7.34-2.38,6.32-3.34l-8.1-1.28c-6.61.4-13.64,2.3-18.21,7.3Z"/>
    </g>
    <g>
      <path class="st0" d="M33.66,150.08l-.38,2.46h1.46v1.02h-1.63l-.53,3.33h-1.07l.53-3.33h-2.18l-.53,3.33h-1.07l.53-3.33h-1.47v-1.02h1.65l.38-2.46h-1.62v-1.02h1.78l.54-3.36h1.07l-.54,3.36h2.18l.54-3.36h1.07l-.54,3.36h1.33v1.02h-1.49ZM32.59,150.08h-2.18l-.38,2.46h2.18l.38-2.46Z"/>
      <path class="st0" d="M41.87,155.8v1.09h-5.28v-1.09h1.95v-8.32c-.27.2-.56.38-.86.52-.31.14-.59.22-.85.22-.23,0-.42-.06-.56-.19-.14-.13-.21-.3-.21-.53,0-.16.03-.29.08-.4.45-.04.94-.19,1.49-.43.54-.25,1.02-.57,1.44-.98h.93v10.11h1.87Z"/>
    </g>
    <g>
      <path class="st0" d="M91.27,150.08l-.38,2.46h1.46v1.02h-1.63l-.53,3.33h-1.07l.53-3.33h-2.18l-.53,3.33h-1.07l.53-3.33h-1.47v-1.02h1.65l.38-2.46h-1.62v-1.02h1.78l.54-3.36h1.07l-.54,3.36h2.18l.54-3.36h1.07l-.54,3.36h1.33v1.02h-1.49ZM90.2,150.08h-2.18l-.38,2.46h2.18l.38-2.46Z"/>
      <path class="st0" d="M99.77,152.26c-.81,1.05-2.01,2.21-3.6,3.48h4.69v1.15h-6.86v-.78c1.39-1.13,2.47-2.09,3.26-2.88.78-.79,1.36-1.52,1.73-2.2.37-.68.55-1.37.55-2.07s-.18-1.19-.53-1.57-.85-.56-1.5-.56c-1.38,0-2.14.83-2.3,2.5-.44,0-.74-.07-.92-.21-.18-.14-.26-.37-.26-.69,0-.48.14-.93.42-1.35s.69-.76,1.22-1.01c.53-.25,1.14-.38,1.85-.38,1.08,0,1.93.29,2.55.86.62.57.94,1.42.94,2.54s-.41,2.13-1.22,3.18Z"/>
    </g>
    <g>
      <path class="st0" d="M148.28,150.08l-.38,2.46h1.46v1.02h-1.63l-.53,3.33h-1.07l.53-3.33h-2.18l-.53,3.33h-1.07l.53-3.33h-1.47v-1.02h1.65l.38-2.46h-1.62v-1.02h1.78l.54-3.36h1.07l-.54,3.36h2.18l.54-3.36h1.07l-.54,3.36h1.33v1.02h-1.49ZM147.21,150.08h-2.18l-.38,2.46h2.18l.38-2.46Z"/>
      <path class="st0" d="M157.53,151.92c.37.4.56.99.56,1.77,0,1.04-.35,1.85-1.06,2.45-.71.6-1.66.9-2.86.9-.73,0-1.36-.09-1.91-.26-.55-.17-.97-.4-1.27-.68-.3-.28-.45-.59-.45-.92,0-.26.08-.46.26-.62.17-.15.37-.23.59-.23.31.5.67.89,1.1,1.15.42.27,1,.4,1.74.4s1.36-.19,1.78-.58c.42-.39.62-.92.62-1.59s-.19-1.18-.56-1.51c-.37-.34-.88-.5-1.5-.5l-.51.02c-.23.02-.42.03-.56.03-.18,0-.34-.1-.47-.3-.13-.2-.2-.39-.2-.57,0-.17.06-.26.18-.26h1.31c.65,0,1.15-.17,1.5-.51.35-.34.52-.86.52-1.55,0-.54-.18-.97-.53-1.27-.35-.3-.87-.46-1.55-.46-.6,0-1.08.15-1.45.44-.37.29-.69.72-.97,1.29-.31,0-.55-.07-.73-.22-.18-.14-.26-.34-.26-.6,0-.29.14-.59.43-.91s.7-.59,1.22-.81c.53-.22,1.12-.33,1.78-.33,1.08,0,1.93.25,2.57.74.63.5.95,1.2.95,2.12,0,.66-.15,1.21-.46,1.63-.31.43-.7.74-1.18.93.55.14,1.02.41,1.39.81Z"/>
    </g>
    <g>
      <path class="st0" d="M205.06,150.08l-.38,2.46h1.46v1.02h-1.63l-.53,3.33h-1.07l.53-3.33h-2.18l-.53,3.33h-1.07l.53-3.33h-1.47v-1.02h1.65l.38-2.46h-1.62v-1.02h1.78l.54-3.36h1.07l-.54,3.36h2.18l.54-3.36h1.07l-.54,3.36h1.33v1.02h-1.49ZM203.99,150.08h-2.18l-.38,2.46h2.18l.38-2.46Z"/>
      <path class="st0" d="M212.13,154.33h-4.86v-.74c1.02-1.42,1.79-2.73,2.3-3.94.51-1.21.82-2.53.93-3.97.1-.02.23-.03.42-.03.69,0,1.04.37,1.04,1.1,0,.91-.32,1.97-.95,3.18-.63,1.22-1.35,2.29-2.14,3.23h3.26v-3.09h1.46v3.09h1.41v1.15h-1.41v2.56h-1.46v-2.56Z"/>
    </g>
  </g>
</svg>